<?xml version="1.0" standalone="no"?>
<!DOCTYPE svg PUBLIC "-//W3C//DTD SVG 20010904//EN"
 "http://www.w3.org/TR/2001/REC-SVG-20010904/DTD/svg10.dtd">
<svg version="1.0" xmlns="http://www.w3.org/2000/svg"
 width="18261.000000pt" height="18261.000000pt" viewBox="0 0 18261.000000 18261.000000"
 preserveAspectRatio="xMidYMid meet">

<g transform="translate(0.000000,18261.000000) scale(0.100000,-0.100000)"
fill="#000000" stroke="none">
<path d="M2 91303 l3 -91308 2 91302 3 91303 91303 3 91302 2 -91307 3 -91308
2 2 -91307z"/>
<path d="M30 91300 l0 -91280 91278 2 91277 3 3 91278 2 91277 -91280 0
-91280 0 0 -91280z m141600 45960 c1930 -62 3448 -383 4630 -981 1455 -735
2251 -1828 2402 -3299 17 -164 17 -712 0 -895 -137 -1481 -826 -3153 -2089
-5074 -1462 -2222 -3732 -4785 -6628 -7481 -291 -271 -294 -273 -114 -75 3137
3452 4954 6431 5343 8760 89 533 101 1050 35 1510 -167 1170 -837 2073 -1974
2661 -1734 897 -4481 1024 -7825 363 -4005 -792 -8509 -2646 -12724 -5237
-1698 -1043 -3330 -2192 -4876 -3432 -3924 -3148 -7197 -6794 -9693 -10797
-1036 -1661 -1898 -3355 -2597 -5103 -1135 -2836 -1793 -5667 -1950 -8385 -43
-757 -41 -1696 5 -2445 228 -3643 1477 -6854 3680 -9455 629 -742 1293 -1394
1995 -1956 3235 -2591 8350 -4506 12800 -4794 566 -36 1373 -47 1850 -25 2131
99 3703 562 4830 1423 195 149 354 290 545 481 620 621 1096 1393 1490 2416
94 244 251 718 333 1010 99 347 851 3342 1058 4210 570 2393 879 4157 1009
5755 101 1249 54 2223 -145 2990 -326 1259 -1069 1988 -2351 2305 -804 199
-1836 252 -3384 175 -1345 -68 -3108 -219 -8770 -749 -5618 -527 -8060 -741
-10150 -891 -783 -55 -1201 -81 -2060 -125 -110 -6 -431 -13 -713 -17 l-513
-6 7 64 c3 35 106 1148 228 2473 l221 2409 25 9 c53 20 619 160 900 222 2595
574 6896 1139 14165 1861 528 53 1253 125 1611 160 690 69 1111 115 2239 245
3350 386 5149 556 7045 665 4085 233 6741 -21 7963 -763 172 -104 257 -171
398 -311 191 -191 319 -373 475 -676 829 -1611 1168 -5015 979 -9835 -257
-6554 -1510 -14940 -2916 -19512 -387 -1260 -744 -2099 -1124 -2647 -696
-1003 -1647 -1680 -3150 -2243 -681 -255 -1378 -463 -3335 -994 -2673 -725
-5462 -1162 -8205 -1284 -701 -31 -1909 -41 -2570 -20 -1545 48 -3025 190
-4443 425 -6489 1075 -11963 4031 -15851 8560 -1547 1802 -2848 3854 -3681
5805 -877 2055 -1374 4262 -1525 6770 -116 1939 -41 4064 245 6932 22 219 40
399 40 400 0 2 -46 0 -102 -4 -4215 -312 -8277 -790 -14468 -1703 -866 -128
-2409 -359 -4432 -665 -4249 -641 -6284 -935 -8593 -1239 -1538 -203 -3965
-494 -3981 -478 -9 9 121 273 196 397 160 266 371 553 825 1120 358 447 491
624 750 995 286 409 370 509 497 589 152 96 285 129 1003 252 1980 338 5398
943 7590 1345 6064 1111 9549 1853 10230 2178 78 37 112 60 152 104 277 294
700 1316 1253 3022 317 981 518 1639 1079 3545 305 1038 424 1430 490 1621 22
64 159 433 305 820 288 768 454 1222 625 1711 673 1927 1057 3411 1146 4428
20 228 20 605 0 775 -55 468 -230 751 -522 840 -159 49 -392 34 -628 -41 -224
-72 -375 -155 -571 -316 -49 -40 -217 -173 -374 -297 -1106 -870 -1833 -1503
-4045 -3517 -877 -798 -1421 -1284 -1936 -1729 -140 -121 -3386 -3019 -7214
-6441 -5125 -4581 -6993 -6256 -7086 -6355 -70 -74 -231 -251 -360 -394 -128
-143 -310 -335 -404 -427 -184 -181 -9924 -9338 -10245 -9632 -227 -208 -543
-488 -1040 -921 -1315 -1145 -1788 -1609 -2526 -2475 -354 -416 -550 -590
-803 -715 -180 -89 -325 -120 -561 -119 -480 2 -1404 193 -2373 488 -628 192
-961 322 -1200 466 l-28 17 80 111 c342 475 905 1109 1822 2052 174 179 761
773 1305 1320 916 923 1325 1343 1600 1645 227 249 280 312 930 1095 190 229
366 432 582 670 l54 59 -34 -5 c-18 -2 -107 -13 -198 -24 -964 -118 -2270
-409 -5090 -1135 -1467 -378 -1799 -456 -2755 -645 -1539 -304 -2027 -409
-2696 -576 -316 -79 -790 -212 -1029 -289 -839 -271 -1412 -574 -1656 -873
-56 -68 -55 -82 11 -218 113 -233 389 -514 778 -793 1783 -1279 6391 -3010
13532 -5085 2879 -836 6271 -1749 9370 -2521 1746 -435 2323 -567 3540 -810
1493 -299 2488 -443 3500 -507 257 -16 1000 -16 1215 0 91 7 230 19 310 27
1671 173 2904 863 4008 2243 554 693 1084 1584 1621 2725 758 1611 1494 3365
2253 5372 467 1234 906 2458 1678 4670 572 1640 849 2427 854 2432 5 5 9718
-227 9724 -232 2 -2 -75 -304 -172 -671 -792 -3027 -1642 -6349 -2930 -11444
-956 -3784 -1350 -5356 -1491 -5940 -439 -1819 -660 -2643 -940 -3500 -754
-2301 -1705 -3862 -2980 -4887 -821 -659 -1808 -1093 -2918 -1283 -983 -167
-2028 -154 -3277 41 -1820 285 -3876 716 -5873 1229 -3632 935 -7492 2208
-12087 3988 -2479 960 -4474 1777 -9490 3887 -2294 965 -2864 1203 -3874 1621
l-469 195 -36 -24 c-420 -278 -2403 -2136 -4081 -3823 -575 -578 -685 -693
-924 -964 -402 -457 -909 -952 -1552 -1515 -443 -389 -779 -670 -1674 -1400
-256 -209 -1356 -1134 -2445 -2055 -1089 -922 -2160 -1820 -2380 -1996 -220
-176 -652 -522 -960 -770 -625 -502 -1104 -884 -1515 -1205 -2515 -1968 -4197
-3073 -5274 -3463 -71 -26 -133 -45 -137 -44 -5 2 22 28 58 58 103 85 536 514
722 715 224 243 508 568 921 1055 189 223 373 439 409 480 36 41 1815 1946
3952 4235 2651 2838 3927 4197 4015 4277 71 64 194 171 274 238 80 67 201 170
270 228 314 265 659 641 1405 1532 667 797 1070 1244 1350 1503 72 66 247 218
390 337 486 407 665 588 1209 1230 326 384 1213 1418 1335 1555 225 254 318
350 496 514 349 320 419 387 518 496 115 126 247 288 247 302 0 15 -93 100
-185 169 -584 441 -2102 1310 -5260 3014 -908 490 -1221 662 -1670 918 -2478
1412 -3875 2495 -4291 3324 -236 471 -180 855 175 1208 177 175 368 303 696
465 656 324 1564 598 3125 944 570 126 1115 237 2790 567 2130 420 2821 565
4355 914 1436 327 2590 579 5555 1214 2785 596 3790 816 5175 1130 752 170
935 208 1735 356 760 141 1050 213 1365 337 613 241 1154 675 1900 1523 113
129 9766 10074 10779 11105 314 319 1261 1271 2105 2116 1687 1686 2549 2533
3901 3831 250 240 1198 1182 2105 2094 1165 1170 1744 1744 1970 1953 549 508
1103 1035 2075 1971 2052 1978 2696 2587 3515 3325 464 418 819 726 1165 1010
177 146 4655 4162 4899 4394 96 91 328 315 516 496 1094 1058 1552 1482 2130
1971 1345 1138 2478 1800 3420 1997 260 55 332 62 625 61 152 0 288 -5 305
-11 25 -8 34 -21 59 -84 90 -236 156 -642 187 -1169 15 -250 15 -1044 0 -1400
-97 -2267 -481 -5378 -1311 -10630 -184 -1162 -344 -2151 -755 -4665 -349
-2132 -520 -3192 -675 -4170 -568 -3596 -859 -5823 -955 -7305 -16 -257 -41
-917 -34 -924 8 -8 809 -31 1054 -31 200 1 252 4 310 19 189 50 292 145 401
371 66 137 116 284 255 743 581 1928 1252 3648 2026 5195 629 1259 1641 2975
2501 4243 141 209 2552 3316 2861 3688 598 720 1194 1375 1916 2105 870 879
1694 1647 3223 3006 l483 429 1527 1190 c2295 1788 2530 1968 3287 2518 5272
3828 11357 6871 17295 8648 3747 1121 7311 1680 10130 1590z m-34299 -69430
c1414 0 2435 -25 3759 -90 5189 -258 11755 -1053 17905 -2170 7917 -1437
14697 -3290 19571 -5349 2699 -1139 4829 -2350 6309 -3585 113 -94 187 -158
580 -501 190 -167 582 -550 741 -725 1146 -1267 1437 -2435 837 -3350 -322
-490 -911 -916 -1725 -1246 -2148 -872 -7321 -1709 -11388 -1844 -178 -6
-1375 -12 -2755 -15 -1342 -2 -2890 -7 -3440 -10 -550 -3 -1742 -7 -2650 -10
-907 -4 -7435 -26 -14505 -50 -7070 -25 -12914 -45 -12986 -45 l-132 0 -41
-70 c-463 -779 -2033 -1493 -3991 -1814 -606 -100 -1377 -172 -2210 -206 -315
-13 -1144 -13 -1415 0 -1333 63 -2194 284 -2654 680 -143 123 -256 300 -303
475 -30 113 -30 322 0 453 30 130 28 128 85 88 333 -237 1341 -478 2572 -616
1756 -196 3454 -145 4510 135 597 158 1008 392 1203 684 52 77 100 176 91 186
-9 8 -211 25 -464 40 -814 46 -2513 95 -5070 146 -391 8 -2015 12 -4980 13
-2677 1 -4815 7 -5460 14 -583 6 -1541 16 -2130 22 -588 6 -2377 24 -3975 40
-10490 107 -11939 117 -17470 117 -3787 0 -4956 -5 -6835 -26 -2735 -32 -4823
-74 -6959 -142 l-639 -20 -186 -106 c-102 -58 -388 -226 -636 -373 -551 -328
-798 -472 -1068 -624 -625 -352 -1285 -683 -1872 -938 -2174 -946 -4540 -1475
-7255 -1623 -916 -49 -2118 -52 -3035 -5 -183 9 -567 64 -1205 171 -2556 429
-4368 977 -5350 1616 -233 152 -261 178 -420 386 -165 217 -225 310 -288 452
-145 326 -133 635 33 890 58 89 226 253 334 325 175 116 420 228 661 299 370
110 966 177 2810 316 327 25 606 47 620 49 14 2 -164 1 -395 -2 -442 -5 -1061
8 -1555 33 -2232 113 -3919 424 -4692 867 -295 168 -378 322 -280 521 64 130
283 328 390 353 130 31 286 46 547 51 526 11 907 -25 2355 -223 1206 -164
1692 -219 2360 -264 260 -18 883 -24 1115 -11 647 36 1580 166 2240 312 633
140 1075 279 2052 644 1914 716 3408 1456 5223 2588 739 461 1353 865 1645
1084 229 172 369 281 373 292 4 12 -247 88 -398 121 -146 31 -348 61 -555 82
-85 8 -283 13 -570 13 -549 0 -681 -9 -1770 -115 -837 -82 -993 -93 -1320 -93
-210 -1 -310 3 -401 16 -302 42 -484 137 -559 292 -26 53 -30 74 -33 171 -3
91 0 127 18 200 28 112 72 224 110 279 95 138 285 227 578 272 96 14 300 16
2052 14 1070 -1 2412 -6 2982 -12 699 -6 1058 -6 1100 1 719 116 2472 1358
5122 3629 1412 1211 3208 2845 4211 3832 l260 256 130 53 c363 148 628 227
890 265 143 21 384 21 491 0 397 -76 621 -316 711 -761 25 -125 25 -536 0
-709 -113 -765 -444 -1694 -1097 -3080 -68 -143 -278 -575 -468 -960 -578
-1174 -709 -1449 -849 -1785 -81 -195 -157 -420 -177 -529 -16 -82 -21 -151
-11 -151 3 0 76 -7 162 -15 375 -35 861 -43 1413 -25 898 29 1260 41 1474 48
l240 7 30 75 c16 41 135 323 264 625 266 623 375 891 468 1150 74 203 162 496
189 629 19 88 19 89 73 131 67 53 200 123 320 170 284 110 705 164 1047 136
233 -19 495 -71 495 -97 0 -26 -50 -246 -95 -419 -93 -357 -182 -602 -395
-1085 -226 -512 -279 -649 -349 -905 -40 -145 -105 -444 -98 -451 6 -7 272
-43 427 -58 329 -33 475 -38 985 -35 1055 8 1134 5 1262 -43 66 -24 108 -58
136 -112 31 -59 28 -209 -7 -366 -14 -63 -44 -208 -68 -321 l-42 -206 -235
-67 c-225 -64 -243 -67 -391 -76 -85 -5 -443 -14 -795 -20 -352 -6 -710 -15
-795 -20 -473 -30 -801 -97 -945 -192 -324 -215 -1309 -2242 -1544 -3176 -37
-148 -70 -356 -59 -367 8 -8 205 22 338 52 226 50 460 134 955 343 519 220
827 265 1195 177 l94 -22 18 -55 c9 -30 17 -86 17 -125 1 -87 -25 -149 -95
-222 -106 -112 -350 -336 -439 -403 -411 -309 -1172 -622 -1750 -719 -66 -11
-266 -35 -445 -52 -643 -64 -894 -40 -1133 109 -193 119 -358 447 -398 786
-15 125 -6 407 16 536 87 516 264 970 733 1890 253 495 350 695 411 850 129
327 127 501 -9 574 -184 98 -1082 148 -2105 116 -428 -14 -787 -37 -860 -55
-33 -9 -114 -43 -180 -75 -724 -360 -1830 -1908 -3091 -4330 -340 -654 -777
-1574 -809 -1702 -7 -26 -5 -28 21 -28 16 0 160 -7 319 -15 690 -34 1031 -39
2335 -38 718 1 3137 1 5375 2 5181 0 6176 8 12380 96 5621 80 7234 95 10185
95 2895 0 3724 -10 8400 -100 2426 -47 3640 -68 5040 -90 3861 -60 6815 -63
8680 -10 390 11 1061 38 1210 48 l95 7 53 95 c79 139 776 1550 766 1550 -3 0
-92 -16 -199 -35 -519 -94 -1372 -219 -1880 -275 -104 -11 -269 -32 -365 -45
-586 -81 -884 -100 -1575 -100 -574 0 -663 3 -1075 41 -1586 143 -3049 629
-4090 1357 -460 322 -879 723 -1177 1127 -178 241 -274 411 -332 585 -296 892
140 2350 1164 3890 610 917 1329 1702 2000 2183 172 123 881 538 1510 884
3414 1877 6473 2927 9300 3193 848 79 1753 85 2475 14 1053 -102 1687 -369
1891 -794 57 -119 73 -190 73 -330 0 -98 -6 -140 -28 -229 -83 -328 -299 -675
-673 -1081 -755 -820 -2139 -1776 -3383 -2335 -713 -320 -698 -318 -1413 -185
-261 49 -292 57 -345 88 -31 19 -104 58 -162 88 -137 69 -203 134 -251 245
-32 76 -34 83 -32 194 1 64 6 126 10 138 6 17 40 37 118 73 176 81 417 181
595 249 91 34 196 75 234 91 39 16 138 53 220 80 782 264 2465 1084 3085 1503
193 130 491 384 622 529 204 225 290 383 292 538 0 64 -4 85 -27 132 -108 221
-467 346 -1116 388 -234 15 -882 6 -1180 -15 -960 -71 -2015 -227 -2651 -392
-96 -24 -403 -100 -684 -168 -733 -178 -985 -249 -1475 -414 -2585 -873 -5134
-2493 -6674 -4243 -1251 -1421 -1819 -2905 -1641 -4284 44 -335 114 -527 270
-736 335 -450 979 -798 2035 -1103 738 -212 981 -276 1305 -341 653 -131 1328
-178 2095 -145 521 23 444 10 1305 216 1091 262 1285 312 1560 401 428 138
643 273 792 493 91 135 156 287 328 760 175 482 339 887 513 1265 l60 130 174
32 c223 41 512 80 708 94 184 14 495 6 630 -15 384 -61 618 -226 702 -496 20
-66 23 -96 23 -240 0 -183 -12 -260 -72 -460 -53 -177 -134 -374 -253 -615
-257 -522 -572 -1020 -1395 -2210 -213 -308 -451 -657 -530 -775 -150 -226
-335 -519 -335 -531 0 -26 1297 -89 2505 -121 681 -18 3854 -17 5445 2 1544
18 4132 19 5615 2 1267 -14 2702 -27 4645 -42 5576 -43 9901 -58 12060 -42
1628 12 2179 21 2575 42 110 5 403 17 650 25 3792 127 5372 304 8270 926 869
187 1654 366 1905 435 1390 381 2366 1079 2628 1879 57 172 67 242 67 460 0
211 -8 268 -60 448 -132 458 -518 958 -1086 1409 -223 177 -930 689 -1347 974
-3687 2531 -8337 4624 -13937 6275 -7502 2213 -16697 3610 -27235 4139 -782
39 -1654 76 -2685 115 -357 14 -787 36 -955 49 -545 44 -1144 75 -1900 98
-504 15 -2338 14 -3110 -1 -971 -19 -2189 -25 -2585 -12 -552 18 -951 50
-1260 101 -66 11 -124 20 -129 20 -89 2 651 120 1284 204 1367 183 2920 311
4570 376 780 30 1989 52 2446 44 128 -3 625 -4 1105 -4z m-16631 -2966 c214
-37 384 -114 506 -227 87 -81 129 -137 178 -233 81 -163 112 -338 103 -602 -8
-268 -61 -533 -177 -888 -536 -1636 -2276 -4040 -3910 -5404 -404 -337 -812
-606 -1153 -761 -198 -90 -345 -182 -614 -382 -449 -335 -969 -834 -1354
-1297 -532 -641 -871 -1258 -966 -1763 -12 -66 -17 -141 -17 -267 0 -156 3
-185 27 -272 14 -53 44 -135 66 -180 74 -152 226 -319 322 -354 70 -26 220
-21 362 11 215 48 363 100 1059 374 494 194 819 298 1088 347 100 19 450 27
466 11 12 -11 -148 -324 -258 -506 l-93 -154 -80 -32 c-197 -78 -323 -145
-655 -350 -220 -136 -467 -264 -645 -334 -257 -101 -595 -201 -865 -255 -317
-64 -721 -91 -986 -67 -647 60 -1070 333 -1218 786 -75 231 -76 543 -1 852
101 421 371 1249 617 1890 58 154 79 218 74 237 -10 42 -64 94 -202 196 -71
54 -145 115 -162 136 -82 99 -31 158 428 489 260 187 404 299 444 347 18 20
81 142 141 270 130 279 412 840 555 1103 1076 1985 2434 3806 4926 6610 l151
171 99 48 c54 26 198 100 319 164 430 228 550 268 905 302 132 12 407 4 520
-16z m-23740 -8669 c0 -10 -116 -215 -218 -385 -154 -256 -271 -438 -642 -995
-648 -976 -838 -1315 -932 -1665 -29 -108 -36 -298 -13 -376 33 -115 96 -200
199 -268 58 -38 33 -39 305 5 869 139 1684 450 2376 906 324 214 557 404 830
678 312 311 552 617 770 980 76 127 306 373 461 492 152 118 391 197 711 236
l112 13 77 -94 c87 -107 112 -149 149 -246 39 -104 55 -196 55 -321 0 -209
-54 -402 -183 -658 -128 -253 -289 -486 -652 -947 -325 -412 -431 -563 -515
-735 -122 -249 -101 -416 66 -531 l56 -39 192 -3 c273 -5 450 26 715 124 200
75 499 246 743 427 42 31 83 57 90 57 7 0 112 -36 233 -79 220 -79 220 -79
217 -108 -5 -51 -99 -226 -183 -338 -98 -130 -370 -406 -515 -521 -462 -369
-933 -592 -1394 -660 -154 -22 -431 -15 -572 15 -425 92 -803 369 -1097 806
-37 55 -87 135 -111 178 -52 91 -41 89 -224 47 -315 -73 -690 -203 -1201 -418
-844 -354 -1023 -425 -1290 -512 -348 -112 -572 -154 -820 -154 -278 0 -442
50 -632 193 -285 215 -462 572 -524 1056 -17 135 -14 485 5 650 93 782 446
1577 985 2220 107 128 349 373 461 467 160 134 290 210 480 281 204 76 392
109 925 167 308 33 427 47 498 59 4 0 7 -1 7 -4z m11545 -255 c203 -14 350
-37 522 -80 558 -142 945 -444 1075 -840 27 -83 31 -112 35 -235 4 -126 2
-150 -21 -237 -77 -301 -287 -561 -641 -794 -261 -172 -590 -332 -969 -474
-473 -176 -898 -294 -1941 -540 -808 -191 -1195 -293 -1195 -317 0 -39 78
-162 144 -228 254 -253 760 -281 1564 -89 346 82 721 198 1432 444 633 219
796 272 973 316 l139 36 21 -20 c12 -11 49 -38 81 -60 l59 -39 1 -158 1 -158
-65 -29 c-204 -92 -793 -341 -1030 -436 -876 -349 -1582 -545 -2249 -622 -506
-59 -1220 -46 -1761 31 -778 111 -1277 364 -1469 746 -100 199 -107 458 -19
728 228 704 1117 1570 2278 2217 1044 582 2187 898 3035 838z m44635 -19 c230
-49 372 -172 418 -362 6 -25 16 -99 22 -164 7 -66 13 -122 15 -126 6 -9 -85
-165 -170 -294 -41 -60 -122 -170 -182 -244 -275 -340 -321 -407 -372 -541
l-21 -55 27 31 c16 17 82 93 148 170 148 172 452 477 605 608 581 497 1105
756 1680 832 175 23 523 15 662 -15 112 -24 247 -70 333 -113 151 -75 330
-220 457 -368 133 -155 162 -213 280 -558 50 -147 93 -270 97 -273 3 -4 146
88 316 204 629 427 1158 768 1393 897 184 102 540 210 822 251 199 29 419 23
564 -15 253 -66 421 -202 535 -431 131 -262 161 -606 90 -1045 -69 -434 -262
-964 -507 -1395 -55 -97 -203 -325 -244 -377 l-30 -38 54 0 c138 0 449 52 723
122 313 79 592 174 855 290 347 154 482 177 1184 198 175 5 320 10 321 12 2 2
9 41 15 87 43 312 329 704 886 1212 259 237 668 581 770 649 419 276 1076 459
1934 537 245 22 936 25 1160 5 364 -33 663 -85 871 -151 l85 -28 35 29 c72 62
183 102 354 130 93 15 612 18 857 4 l158 -8 -6 -27 c-90 -376 -268 -800 -505
-1196 -63 -106 -335 -512 -518 -775 -167 -239 -240 -355 -322 -515 -133 -257
-191 -492 -174 -704 l7 -89 62 -16 c269 -67 722 -58 951 19 146 49 255 136
290 230 10 28 19 51 21 53 2 4 595 52 638 52 26 0 28 -2 22 -27 -11 -46 -92
-205 -133 -259 -76 -101 -139 -168 -233 -246 -379 -318 -933 -543 -1540 -625
-171 -23 -508 -23 -645 1 -441 74 -689 253 -787 566 -20 66 -23 94 -22 235 0
88 6 180 12 205 6 24 10 46 8 47 -1 1 -157 -77 -347 -174 -901 -461 -1355
-658 -1832 -793 -616 -175 -1141 -179 -1587 -13 -396 148 -732 428 -1021 851
-49 72 -94 132 -99 132 -31 0 -211 -76 -282 -118 -45 -27 -144 -79 -218 -114
-74 -36 -223 -119 -330 -185 -452 -278 -697 -417 -990 -564 -415 -207 -776
-337 -1095 -394 -129 -23 -364 -31 -477 -15 -387 52 -646 273 -805 685 l-35
90 5 180 c9 282 33 371 171 618 41 73 93 177 116 232 72 173 92 212 275 540
361 647 542 1031 585 1238 15 72 -5 149 -53 203 -57 66 -140 81 -240 45 -765
-284 -1691 -911 -2362 -1602 -599 -616 -932 -1225 -984 -1798 -5 -57 -13 -107
-18 -111 -4 -3 -84 -17 -177 -29 -616 -84 -933 -92 -1175 -30 -188 48 -351
172 -351 267 0 83 100 230 471 692 527 656 725 936 889 1256 143 277 212 535
195 724 -23 257 -194 478 -423 550 -522 163 -1352 -424 -2471 -1748 -261 -309
-504 -614 -851 -1067 -258 -337 -331 -424 -462 -551 -151 -146 -193 -168 -338
-172 -61 -2 -193 5 -315 17 -115 12 -309 26 -430 32 -121 6 -225 13 -232 14
-6 2 -19 36 -28 77 -59 260 -41 555 55 908 73 269 167 519 415 1100 385 902
521 1341 561 1805 l6 80 168 173 168 173 213 54 c348 88 634 141 879 165 151
14 419 4 530 -19z m-6040 -25 c321 -39 675 -130 943 -242 547 -230 914 -586
1060 -1029 46 -140 58 -212 64 -400 6 -200 -10 -331 -62 -510 -98 -335 -226
-524 -529 -778 -790 -661 -2232 -1374 -3192 -1577 -264 -55 -360 -63 -799 -64
-410 0 -566 8 -865 45 -832 103 -1378 377 -1594 799 -121 236 -143 477 -71
777 141 592 678 1277 1450 1851 884 657 1925 1066 2905 1142 156 12 537 4 690
-14z"/>
<path d="M56610 63548 c-63 -55 -275 -241 -470 -412 -1700 -1490 -3561 -3154
-4570 -4085 -514 -474 -738 -689 -1071 -1021 -312 -311 -445 -458 -436 -484 2
-6 23 -16 47 -23 24 -7 60 -28 80 -47 19 -19 54 -39 78 -46 31 -8 489 -7 1794
5 1683 16 1753 17 1789 35 108 56 322 253 465 430 304 376 629 911 982 1620
622 1246 1163 2701 1361 3660 32 160 78 471 69 470 -2 -1 -55 -46 -118 -102z"/>
<path d="M50260 56239 c-449 -9 -934 -44 -1170 -85 -300 -52 -1029 -320 -1694
-624 -1161 -530 -2349 -1184 -4801 -2645 -1778 -1059 -1492 -907 -3565 -1901
-982 -470 -1789 -860 -1795 -865 -5 -5 112 -9 300 -9 171 0 2495 -16 5165 -36
5039 -37 5799 -38 6000 -10 502 69 794 224 1340 713 250 224 275 251 427 478
383 574 824 1321 1798 3050 314 556 478 842 568 989 64 105 81 159 81 266 1
81 -3 103 -24 145 -30 62 -136 169 -212 213 -403 237 -1221 345 -2418 321z"/>
<path d="M34523 49883 c15 -2 39 -2 55 0 15 2 2 4 -28 4 -30 0 -43 -2 -27 -4z"/>
<path d="M48785 48979 c-357 -40 -1221 -79 -2220 -99 -629 -13 -3558 -13
-4875 0 -1832 18 -4731 23 -5560 11 -1864 -28 -2918 -83 -3665 -192 -243 -36
-583 -113 -609 -139 -12 -12 9 -114 45 -223 305 -918 1646 -1626 3762 -1987
633 -108 1228 -171 2062 -221 285 -17 1481 -23 1833 -10 910 35 1620 102 2817
266 2263 311 3708 699 4686 1261 384 220 663 416 1378 967 139 107 312 236
383 286 l131 91 -49 -1 c-27 -1 -80 -5 -119 -10z"/>
<path d="M90442 63960 c-205 -54 -478 -228 -827 -526 -279 -238 -807 -779
-1196 -1224 -1056 -1210 -2351 -2989 -3006 -4133 -179 -313 -339 -645 -359
-746 l-7 -32 139 82 c571 337 1164 742 1627 1112 1018 812 1827 1697 2833
3097 255 354 320 462 486 800 339 693 531 1312 482 1559 -6 29 -9 31 -53 30
-25 0 -79 -9 -119 -19z"/>
<path d="M77635 55064 c-251 -45 -563 -164 -848 -325 -571 -322 -1140 -856
-1253 -1176 -35 -101 -34 -106 36 -137 168 -76 300 -105 500 -113 339 -13 666
65 1026 242 545 269 946 678 1070 1090 22 75 27 110 28 215 1 154 -4 175 -46
189 -108 34 -365 41 -513 15z"/>
<path d="M137020 55079 c-188 -24 -433 -96 -638 -188 -821 -367 -1607 -1233
-1737 -1914 -19 -100 -19 -254 0 -335 49 -208 211 -353 460 -413 141 -33 275
-16 537 71 532 178 1514 699 1818 966 294 258 454 443 595 689 53 93 325 640
325 655 0 11 -169 154 -248 208 -204 141 -427 229 -665 261 -90 13 -351 12
-447 0z"/>
<path d="M116500 54920 c-356 -37 -681 -136 -1055 -321 -396 -195 -751 -453
-1060 -770 -164 -168 -247 -269 -355 -432 -243 -364 -313 -695 -196 -925 102
-201 367 -322 741 -338 124 -6 149 -4 224 15 315 82 920 400 1466 769 776 525
1286 1038 1390 1396 24 83 18 215 -14 279 -94 192 -441 322 -886 332 -93 2
-208 0 -255 -5z"/>
</g>
</svg>
